<svg class="clock" viewBox="0 0 1000 1000" xmlns="http://www.w3.org/2000/svg">
    <circle id="border" stroke-width="25" cx="500" cy="500" r="487.5" />
    <circle id="center" cx="500" cy="500" r="37" />
    <polygon id="line-0h" points="488 64 488 138.722656 513 138.722656 513 64" />
    <polygon id="line-1h" transform="translate(699.687081, 154.413872) rotate(210.000000) translate(-699.687081, -154.413872) " points="687.187081 117.052544 687.187081 191.7752 712.187081 191.7752 712.187081 117.052544" />
    <polygon id="line-2h" transform="translate(845.863472, 300.325753) rotate(240.000000) translate(-845.863472, -300.325753) " points="833.363472 262.964424 833.363472 337.687081 858.363472 337.687081 858.363472 262.964424" />
    <polygon id="line-3h" transform="translate(899.138672, 500.500000) rotate(90.000000) translate(-899.138672, -500.500000) " points="886.638672 463.138672 886.638672 537.861328 911.638672 537.861328 911.638672 463.138672" />
    <polygon id="line-4h" transform="translate(845.550553, 699.770927) rotate(120.000000) translate(-845.550553, -699.770927) " points="833.050553 662.409599 833.050553 737.132255 858.050553 737.132255 858.050553 662.409599" />
    <polygon id="line-5h" transform="translate(699.506417, 845.550553) rotate(150.000000) translate(-699.506417, -845.550553) " points="687.006417 808.189225 687.006417 882.911881 712.006417 882.911881 712.006417 808.189225" />
    <polygon id="line-6h" points="487.5 861.638672 487.5 936.361328 512.5 936.361328 512.5 861.638672" />
    <polygon id="line-7h" transform="translate(300.867745, 845.189225) rotate(210.000000) translate(-300.867745, -845.189225) " points="288.367745 807.827896 288.367745 882.550553 313.367745 882.550553 313.367745 807.827896" />
    <polygon id="line-8h" transform="translate(155.088119, 699.145088) rotate(240.000000) translate(-155.088119, -699.145088) " points="142.588119 661.78376 142.588119 736.506417 167.588119 736.506417 167.588119 661.78376" />
    <polygon id="line-9h" transform="translate(101.500000, 500.500000) rotate(90.000000) translate(-101.500000, -500.500000) " points="89 463.138672 89 537.861328 114 537.861328 114 463.138672" />
    <polygon id="line-10h" transform="translate(154.775200, 300.951591) rotate(120.000000) translate(-154.775200, -300.951591) " points="142.2752 263.590263 142.2752 338.312919 167.2752 338.312919 167.2752 263.590263" />
    <polygon id="line-11h" transform="translate(300.687081, 154.775200) rotate(150.000000) translate(-300.687081, -154.775200) " points="288.187081 117.413872 288.187081 192.136528 313.187081 192.136528 313.187081 117.413872" />
    <polygon class="dial minute" points="488 64 488 500 513 500 513 64" />
    <polygon class="dial hour" transform="translate(500.500000, 360.000000) rotate(180.000000) translate(-500.500000, -360.000000) " points="488 220 488 500 513 500 513 220" />
    <polygon class="dial second" points="493 64 493 500 508 500 508 64" />
</svg>