<?xml version="1.0" encoding="UTF-8"?>
<svg width="341px" height="85px" viewBox="0 0 341 85" version="1.1" xmlns="http://www.w3.org/2000/svg" xmlns:xlink="http://www.w3.org/1999/xlink">
    <!-- Generator: Sketch 55.1 (78136) - https://sketchapp.com -->
    <title>Mondaine</title>
    <desc>Created with Sketch.</desc>
    <g id="Page-1" stroke="none" stroke-width="1" fill="none" fill-rule="evenodd">
        <g id="Artboard" transform="translate(-329.000000, -267.000000)">
            <g id="Mondaine" transform="translate(324.000000, 251.445610)">
                <path d="M26.1066667,51.0077647 L40.128,17.1592941 L46.5813333,17.1592941 L46.5813333,58.7647059 L42.3573333,58.7647059 L42.3573333,22.8007059 L42.24,22.8007059 L27.2213333,58.7647059 L24.992,58.7647059 L9.97333333,22.8007059 L9.856,22.8007059 L9.856,58.7647059 L5.632,58.7647059 L5.632,17.1592941 L12.0853333,17.1592941 L26.1066667,51.0077647 Z M96.9205045,37.962 C96.9205045,35.5722233 96.5293973,33.2902168 95.7471712,31.1159118 C94.964945,28.9416068 93.8405118,27.0317729 92.3738378,25.3863529 C90.9071638,23.7409329 89.1178484,22.4285343 87.0058378,21.4491176 C84.8938273,20.469701 82.5080734,19.98 79.8485045,19.98 C77.1889357,19.98 74.8031817,20.469701 72.6911712,21.4491176 C70.5791606,22.4285343 68.7898452,23.7409329 67.3231712,25.3863529 C65.8564972,27.0317729 64.732064,28.9416068 63.9498378,31.1159118 C63.1676117,33.2902168 62.7765045,35.5722233 62.7765045,37.962 C62.7765045,40.3517767 63.1676117,42.6337832 63.9498378,44.8080882 C64.732064,46.9823932 65.8564972,48.8922271 67.3231712,50.5376471 C68.7898452,52.1830671 70.5791606,53.4954657 72.6911712,54.4748824 C74.8031817,55.454299 77.1889357,55.944 79.8485045,55.944 C82.5080734,55.944 84.8938273,55.454299 87.0058378,54.4748824 C89.1178484,53.4954657 90.9071638,52.1830671 92.3738378,50.5376471 C93.8405118,48.8922271 94.964945,46.9823932 95.7471712,44.8080882 C96.5293973,42.6337832 96.9205045,40.3517767 96.9205045,37.962 Z M101.496505,37.962 C101.496505,41.13531 100.948954,44.0539279 99.8538378,46.7179412 C98.7587213,49.3819545 97.2431809,51.6835491 95.3071712,53.6227941 C93.3711615,55.5620391 91.0831844,57.0801122 88.4431712,58.1770588 C85.803158,59.2740055 82.9382977,59.8224706 79.8485045,59.8224706 C76.7587113,59.8224706 73.893851,59.2740055 71.2538378,58.1770588 C68.6138246,57.0801122 66.3258475,55.5620391 64.3898378,53.6227941 C62.4538282,51.6835491 60.9382878,49.3819545 59.8431712,46.7179412 C58.7480546,44.0539279 58.2005045,41.13531 58.2005045,37.962 C58.2005045,34.78869 58.7480546,31.8700721 59.8431712,29.2060588 C60.9382878,26.5420455 62.4538282,24.2404509 64.3898378,22.3012059 C66.3258475,20.3619609 68.6138246,18.8438878 71.2538378,17.7469412 C73.893851,16.6499945 76.7587113,16.1015294 79.8485045,16.1015294 C82.9382977,16.1015294 85.803158,16.6499945 88.4431712,17.7469412 C91.0831844,18.8438878 93.3711615,20.3619609 95.3071712,22.3012059 C97.2431809,24.2404509 98.7587213,26.5420455 99.8538378,29.2060588 C100.948954,31.8700721 101.496505,34.78869 101.496505,37.962 Z M143.153009,52.4181176 L143.270342,52.4181176 L143.270342,17.1592941 L147.494342,17.1592941 L147.494342,58.7647059 L142.214342,58.7647059 L117.457009,23.1532941 L117.339676,23.1532941 L117.339676,58.7647059 L113.115676,58.7647059 L113.115676,17.1592941 L118.395676,17.1592941 L143.153009,52.4181176 Z M165.566847,54.8862353 L173.78018,54.8862353 C176.948196,54.8862353 179.695724,54.4063283 182.022847,53.4465 C184.34997,52.4866717 186.28595,51.2134491 187.830847,49.6267941 C189.375743,48.0401391 190.519732,46.2380395 191.262847,44.2204412 C192.005962,42.2028429 192.377514,40.1167167 192.377514,37.962 C192.377514,35.8072833 192.005962,33.7211571 191.262847,31.7035588 C190.519732,29.6859605 189.375743,27.8838609 187.830847,26.2972059 C186.28595,24.7105509 184.34997,23.4373283 182.022847,22.4775 C179.695724,21.5176717 176.948196,21.0377647 173.78018,21.0377647 L165.566847,21.0377647 L165.566847,54.8862353 Z M161.342847,17.1592941 L175.129514,17.1592941 C177.71086,17.1592941 180.301945,17.590231 182.902847,18.4521176 C185.503749,19.3140043 187.850392,20.6166089 189.942847,22.3599706 C192.035302,24.1033322 193.72684,26.2776046 195.017514,28.8828529 C196.308187,31.4881013 196.953514,34.5144534 196.953514,37.962 C196.953514,41.4487233 196.308187,44.4848694 195.017514,47.0705294 C193.72684,49.6561894 192.035302,51.8206678 189.942847,53.5640294 C187.850392,55.3073911 185.503749,56.6099957 182.902847,57.4718824 C180.301945,58.333769 177.71086,58.7647059 175.129514,58.7647059 L161.342847,58.7647059 L161.342847,17.1592941 Z M214.028685,43.956 L232.039351,43.956 L223.063351,22.0955294 L214.028685,43.956 Z M207.868685,58.7647059 L202.940685,58.7647059 L221.010018,17.1592941 L225.116685,17.1592941 L243.186018,58.7647059 L238.258018,58.7647059 L233.682018,47.8344706 L212.444685,47.8344706 L207.868685,58.7647059 Z M256.213189,58.7647059 L251.989189,58.7647059 L251.989189,17.1592941 L256.213189,17.1592941 L256.213189,58.7647059 Z M300.685694,52.4181176 L300.803027,52.4181176 L300.803027,17.1592941 L305.027027,17.1592941 L305.027027,58.7647059 L299.747027,58.7647059 L274.989694,23.1532941 L274.87236,23.1532941 L274.87236,58.7647059 L270.64836,58.7647059 L270.64836,17.1592941 L275.92836,17.1592941 L300.685694,52.4181176 Z M323.686198,54.8862353 L345.920865,54.8862353 L345.920865,58.7647059 L319.462198,58.7647059 L319.462198,17.1592941 L345.216865,17.1592941 L345.216865,21.0377647 L323.686198,21.0377647 L323.686198,35.2000588 L343.808865,35.2000588 L343.808865,39.0785294 L323.686198,39.0785294 L323.686198,54.8862353 Z" id="MONDAINE" fill="#444444" fill-rule="nonzero"></path>
                <path d="M142.550486,94.4745882 C143.017708,95.1765917 143.615204,95.6940866 144.342991,96.0270882 C145.070778,96.3600899 145.821017,96.5265882 146.59373,96.5265882 C147.025011,96.5265882 147.465271,96.4590889 147.914523,96.3240882 C148.363774,96.1890876 148.772587,95.9865896 149.140973,95.7165882 C149.509359,95.4465869 149.810353,95.1135902 150.043964,94.7175882 C150.277575,94.3215863 150.394378,93.8625908 150.394378,93.3405882 C150.394378,92.6025845 150.160771,92.0400902 149.69355,91.6530882 C149.226328,91.2660863 148.646802,90.9420895 147.954955,90.6810882 C147.263108,90.4200869 146.508376,90.1680895 145.690739,89.9250882 C144.873101,89.682087 144.11837,89.3445904 143.426523,88.9125882 C142.734675,88.4805861 142.155149,87.9000919 141.687928,87.1710882 C141.220706,86.4420846 140.987099,85.4565944 140.987099,84.2145882 C140.987099,83.6565854 141.108395,83.0625914 141.350991,82.4325882 C141.593587,81.8025851 141.975445,81.2265908 142.496577,80.7045882 C143.017708,80.1825856 143.687083,79.74609 144.504721,79.3950882 C145.322358,79.0440865 146.306204,78.8685882 147.456288,78.8685882 C148.498552,78.8685882 149.495875,79.0125868 150.448288,79.3005882 C151.400701,79.5885897 152.236297,80.1735838 152.955099,81.0555882 L150.852613,82.9725882 C150.529152,82.4685857 150.070922,82.0635898 149.47791,81.7575882 C148.884898,81.4515867 148.211031,81.2985882 147.456288,81.2985882 C146.737486,81.2985882 146.13999,81.3930873 145.663784,81.5820882 C145.187577,81.7710892 144.805719,82.0140868 144.518198,82.3110882 C144.230677,82.6080897 144.028517,82.9275865 143.911712,83.2695882 C143.794906,83.6115899 143.736505,83.9265868 143.736505,84.2145882 C143.736505,85.0245923 143.970112,85.6455861 144.437333,86.0775882 C144.904555,86.5095904 145.484081,86.8605869 146.175928,87.1305882 C146.867775,87.4005896 147.622506,87.6435872 148.440144,87.8595882 C149.257782,88.0755893 150.012513,88.3770863 150.70436,88.7640882 C151.396208,89.1510902 151.975733,89.673085 152.442955,90.3300882 C152.910177,90.9870915 153.143784,91.8915825 153.143784,93.0435882 C153.143784,93.9615928 152.968578,94.7895845 152.618162,95.5275882 C152.267746,96.2655919 151.796039,96.8865857 151.203027,97.3905882 C150.610015,97.8945908 149.909193,98.2815869 149.100541,98.5515882 C148.291888,98.8215896 147.429338,98.9565882 146.512865,98.9565882 C145.290901,98.9565882 144.131849,98.7405904 143.035676,98.3085882 C141.939502,97.8765861 141.067967,97.2105927 140.421045,96.3105882 L142.550486,94.4745882 Z M156.971387,79.3545882 L163.602306,79.3545882 C164.428929,79.3545882 165.197138,79.4535872 165.906955,79.6515882 C166.616772,79.8495892 167.227745,80.1420863 167.739892,80.5290882 C168.252039,80.9160902 168.656359,81.4110852 168.952865,82.0140882 C169.249371,82.6170913 169.397622,83.3235842 169.397622,84.1335882 C169.397622,85.2315937 169.092135,86.1270848 168.481153,86.8200882 C167.870171,87.5130917 167.0795,88.0215866 166.109117,88.3455882 L166.109117,88.3995882 C166.684159,88.4355884 167.223253,88.5840869 167.726414,88.8450882 C168.229576,89.1060895 168.665344,89.4480861 169.03373,89.8710882 C169.402116,90.2940904 169.694125,90.7845854 169.909766,91.3425882 C170.125406,91.900591 170.233225,92.503585 170.233225,93.1515882 C170.233225,94.0155926 170.05802,94.776085 169.707604,95.4330882 C169.357187,96.0900915 168.876496,96.643586 168.265514,97.0935882 C167.654531,97.5435905 166.944725,97.8855871 166.136072,98.1195882 C165.327419,98.3535894 164.455885,98.4705882 163.521441,98.4705882 L156.971387,98.4705882 L156.971387,79.3545882 Z M159.559063,87.2925882 L163.090162,87.2925882 C163.575354,87.2925882 164.033583,87.2430887 164.464865,87.1440882 C164.896146,87.0450877 165.273512,86.8785894 165.596973,86.6445882 C165.920434,86.4105871 166.176504,86.11359 166.365189,85.7535882 C166.553875,85.3935864 166.648216,84.9525908 166.648216,84.4305882 C166.648216,83.6745845 166.405624,83.017591 165.920432,82.4595882 C165.435241,81.9015854 164.671525,81.6225882 163.629261,81.6225882 L159.559063,81.6225882 L159.559063,87.2925882 Z M159.559063,96.2025882 L163.359712,96.2025882 C163.755053,96.2025882 164.19082,96.1620886 164.667027,96.0810882 C165.143234,96.0000878 165.587986,95.8380895 166.001297,95.5950882 C166.414609,95.352087 166.76502,95.0235903 167.052541,94.6095882 C167.340061,94.1955862 167.48382,93.6465917 167.48382,92.9625882 C167.48382,91.8285826 167.115439,90.9780911 166.378667,90.4110882 C165.641894,89.8440854 164.644571,89.5605882 163.386667,89.5605882 L159.559063,89.5605882 L159.559063,96.2025882 Z M173.953009,79.3545882 L180.583928,79.3545882 C181.410551,79.3545882 182.178759,79.4535872 182.888577,79.6515882 C183.598394,79.8495892 184.209367,80.1420863 184.721514,80.5290882 C185.23366,80.9160902 185.63798,81.4110852 185.934486,82.0140882 C186.230992,82.6170913 186.379243,83.3235842 186.379243,84.1335882 C186.379243,85.2315937 186.073757,86.1270848 185.462775,86.8200882 C184.851793,87.5130917 184.061122,88.0215866 183.090739,88.3455882 L183.090739,88.3995882 C183.665781,88.4355884 184.204874,88.5840869 184.708036,88.8450882 C185.211198,89.1060895 185.646965,89.4480861 186.015351,89.8710882 C186.383738,90.2940904 186.675747,90.7845854 186.891387,91.3425882 C187.107028,91.900591 187.214847,92.503585 187.214847,93.1515882 C187.214847,94.0155926 187.039641,94.776085 186.689225,95.4330882 C186.338809,96.0900915 185.858117,96.643586 185.247135,97.0935882 C184.636153,97.5435905 183.926346,97.8855871 183.117694,98.1195882 C182.309041,98.3535894 181.437506,98.4705882 180.503063,98.4705882 L173.953009,98.4705882 L173.953009,79.3545882 Z M176.540685,87.2925882 L180.071784,87.2925882 C180.556975,87.2925882 181.015205,87.2430887 181.446486,87.1440882 C181.877768,87.0450877 182.255134,86.8785894 182.578595,86.6445882 C182.902056,86.4105871 183.158125,86.11359 183.346811,85.7535882 C183.535496,85.3935864 183.629838,84.9525908 183.629838,84.4305882 C183.629838,83.6745845 183.387246,83.017591 182.902054,82.4595882 C182.416862,81.9015854 181.653146,81.6225882 180.610883,81.6225882 L176.540685,81.6225882 L176.540685,87.2925882 Z M176.540685,96.2025882 L180.341333,96.2025882 C180.736675,96.2025882 181.172442,96.1620886 181.648649,96.0810882 C182.124855,96.0000878 182.569608,95.8380895 182.982919,95.5950882 C183.39623,95.352087 183.746641,95.0235903 184.034162,94.6095882 C184.321683,94.1955862 184.465441,93.6465917 184.465441,92.9625882 C184.465441,91.8285826 184.097061,90.9780911 183.360288,90.4110882 C182.623516,89.8440854 181.626192,89.5605882 180.368288,89.5605882 L176.540685,89.5605882 L176.540685,96.2025882 Z M211.716901,83.4855882 C211.177799,82.7835847 210.494947,82.2435901 209.668324,81.8655882 C208.841702,81.4875863 207.988137,81.2985882 207.107604,81.2985882 C206.0294,81.2985882 205.054539,81.5010862 204.182991,81.9060882 C203.311443,82.3110903 202.565697,82.8645847 201.94573,83.5665882 C201.325763,84.2685917 200.845071,85.0920835 200.50364,86.0370882 C200.162209,86.982093 199.991495,87.9945828 199.991495,89.0745882 C199.991495,90.0825933 200.153224,91.0365837 200.476685,91.9365882 C200.800146,92.8365927 201.26736,93.6285848 201.878342,94.3125882 C202.489324,94.9965917 203.235071,95.5365863 204.115604,95.9325882 C204.996137,96.3285902 205.99346,96.5265882 207.107604,96.5265882 C208.203777,96.5265882 209.165161,96.3015905 209.991784,95.8515882 C210.818407,95.401586 211.519228,94.7715923 212.09427,93.9615882 L214.277622,95.6085882 C214.133861,95.8065892 213.882284,96.0900864 213.522883,96.4590882 C213.163482,96.8280901 212.687282,97.1970864 212.09427,97.5660882 C211.501258,97.9350901 210.786959,98.2590868 209.951351,98.5380882 C209.115744,98.8170896 208.149867,98.9565882 207.053694,98.9565882 C205.544209,98.9565882 204.182997,98.6685911 202.970018,98.0925882 C201.757039,97.5165854 200.723776,96.7605929 199.870198,95.8245882 C199.01662,94.8885836 198.365215,93.8310941 197.915964,92.6520882 C197.466712,91.4730823 197.24209,90.2805943 197.24209,89.0745882 C197.24209,87.5985809 197.484682,86.2350945 197.969874,84.9840882 C198.455065,83.733082 199.133425,82.6530928 200.004973,81.7440882 C200.876521,80.8350837 201.923261,80.1285908 203.145225,79.6245882 C204.367189,79.1205857 205.714924,78.8685882 207.188468,78.8685882 C208.446373,78.8685882 209.681796,79.1115858 210.894775,79.5975882 C212.107754,80.0835907 213.100585,80.8305832 213.873297,81.8385882 L211.716901,83.4855882 Z M217.404396,79.3545882 L229.399351,79.3545882 L229.399351,81.7845882 L219.992072,81.7845882 L219.992072,87.7785882 L228.752432,87.7785882 L228.752432,90.2085882 L219.992072,90.2085882 L219.992072,98.4705882 L217.404396,98.4705882 L217.404396,79.3545882 Z M232.876541,79.3545882 L244.871495,79.3545882 L244.871495,81.7845882 L235.464216,81.7845882 L235.464216,87.7785882 L244.224577,87.7785882 L244.224577,90.2085882 L235.464216,90.2085882 L235.464216,98.4705882 L232.876541,98.4705882 L232.876541,79.3545882 Z M255.842162,79.3545882 L267.837117,79.3545882 L267.837117,81.7845882 L258.429838,81.7845882 L258.429838,87.7785882 L267.190198,87.7785882 L267.190198,90.2085882 L258.429838,90.2085882 L258.429838,98.4705882 L255.842162,98.4705882 L255.842162,79.3545882 Z M271.314306,79.3545882 L283.309261,79.3545882 L283.309261,81.7845882 L273.901982,81.7845882 L273.901982,87.7785882 L282.662342,87.7785882 L282.662342,90.2085882 L273.901982,90.2085882 L273.901982,98.4705882 L271.314306,98.4705882 L271.314306,79.3545882 Z M287.352505,94.4745882 C287.819726,95.1765917 288.417222,95.6940866 289.145009,96.0270882 C289.872796,96.3600899 290.623035,96.5265882 291.395748,96.5265882 C291.827029,96.5265882 292.267289,96.4590889 292.716541,96.3240882 C293.165792,96.1890876 293.574605,95.9865896 293.942991,95.7165882 C294.311377,95.4465869 294.612371,95.1135902 294.845982,94.7175882 C295.079593,94.3215863 295.196396,93.8625908 295.196396,93.3405882 C295.196396,92.6025845 294.962789,92.0400902 294.495568,91.6530882 C294.028346,91.2660863 293.44882,90.9420895 292.756973,90.6810882 C292.065126,90.4200869 291.310394,90.1680895 290.492757,89.9250882 C289.675119,89.682087 288.920388,89.3445904 288.228541,88.9125882 C287.536693,88.4805861 286.957168,87.9000919 286.489946,87.1710882 C286.022724,86.4420846 285.789117,85.4565944 285.789117,84.2145882 C285.789117,83.6565854 285.910413,83.0625914 286.153009,82.4325882 C286.395605,81.8025851 286.777463,81.2265908 287.298595,80.7045882 C287.819726,80.1825856 288.489101,79.74609 289.306739,79.3950882 C290.124376,79.0440865 291.108222,78.8685882 292.258306,78.8685882 C293.30057,78.8685882 294.297893,79.0125868 295.250306,79.3005882 C296.202719,79.5885897 297.038315,80.1735838 297.757117,81.0555882 L295.654631,82.9725882 C295.33117,82.4685857 294.87294,82.0635898 294.279928,81.7575882 C293.686916,81.4515867 293.013049,81.2985882 292.258306,81.2985882 C291.539504,81.2985882 290.942008,81.3930873 290.465802,81.5820882 C289.989595,81.7710892 289.607737,82.0140868 289.320216,82.3110882 C289.032695,82.6080897 288.830535,82.9275865 288.71373,83.2695882 C288.596924,83.6115899 288.538523,83.9265868 288.538523,84.2145882 C288.538523,85.0245923 288.77213,85.6455861 289.239351,86.0775882 C289.706573,86.5095904 290.286099,86.8605869 290.977946,87.1305882 C291.669793,87.4005896 292.424524,87.6435872 293.242162,87.8595882 C294.0598,88.0755893 294.814531,88.3770863 295.506378,88.7640882 C296.198226,89.1510902 296.777751,89.673085 297.244973,90.3300882 C297.712195,90.9870915 297.945802,91.8915825 297.945802,93.0435882 C297.945802,93.9615928 297.770596,94.7895845 297.42018,95.5275882 C297.069764,96.2655919 296.598057,96.8865857 296.005045,97.3905882 C295.412033,97.8945908 294.711211,98.2815869 293.902559,98.5515882 C293.093906,98.8215896 292.231356,98.9565882 291.314883,98.9565882 C290.092919,98.9565882 288.933867,98.7405904 287.837694,98.3085882 C286.74152,97.8765861 285.869985,97.2105927 285.223063,96.3105882 L287.352505,94.4745882 Z" id="SBBCFFFFS" fill="#444444" fill-rule="nonzero"></path>
                <rect id="Rectangle" fill="#FF0000" fill-rule="evenodd" x="69.7657658" y="77.8235294" width="58.6666667" height="22.2352941"></rect>
                <polygon id="Path" fill="#FFFFFF" fill-rule="evenodd" points="106.031661 81.4764706 109.607978 81.4764706 109.607978 87.1616482 117.31092 87.1616482 111.204905 81.4764706 115.843835 81.4764706 123.675676 88.9199979 115.843835 96.3 111.099742 96.3 117.31092 90.6671947 109.704023 90.6671947 109.704023 96.3 105.935616 96.3 105.935616 90.6671947 98.3287195 90.6671947 104.539897 96.3 99.7958043 96.3 91.963964 88.9199979 99.7958043 81.4764706 104.434735 81.4764706 98.3287195 87.1616482 106.031661 87.1616482"></polygon>
                <g id="Group" stroke-width="1" fill-rule="evenodd" transform="translate(91.963964, 81.000000)"></g>
            </g>
        </g>
    </g>
</svg>